<svg xmlns="http://www.w3.org/2000/svg" viewBox="0 0 96 96" fill="none">
  <rect x="8" y="8" width="80" height="80" rx="22" fill="#0f766e" />
  <path
    d="M24 31.5h48c2.5 0 4.5 2 4.5 4.5v24c0 2.5-2 4.5-4.5 4.5H24c-2.5 0-4.5-2-4.5-4.5V36c0-2.5 2-4.5 4.5-4.5Z"
    stroke="#FFF8EE"
    stroke-width="5"
    stroke-linejoin="round"
  />
  <path
    d="M30 41h36M30 49h36M30 57h18"
    stroke="#FF845E"
    stroke-width="5"
    stroke-linecap="round"
  />
  <path
    d="m69 17 3.5 7 7 3.5-7 3.5-3.5 7-3.5-7-7-3.5 7-3.5 3.5-7Z"
    fill="#F4C95D"
  />
</svg>
